# Blender 4.0.2
# www.blender.org
o grass-blade
v -0.000000 1.484045 -0.003436
v 0.000000 -0.003160 0.109724
v -0.000000 1.484045 -0.007186
v 0.000000 -0.003160 -0.109724
v -0.000000 1.234376 0.031127
v -0.000000 0.988257 0.059389
v 0.000000 0.726753 0.080341
v 0.000000 0.476175 0.098720
v 0.000000 0.242906 0.103220
v 0.000000 0.242906 -0.103220
v 0.000000 0.476175 -0.097406
v 0.000000 0.726753 -0.076998
v -0.000000 0.988257 -0.057501
v -0.000000 1.234376 -0.040791
vn 0.7182 -0.0125 0.6957
vn 0.5733 0.0120 -0.8192
vn 0.7182 -0.0124 0.6957
vn 0.5733 0.0121 -0.8192
vt 1.000000 0.000000
vt 0.834545 1.000000
vt 0.834545 0.000000
vt 0.000000 0.000000
vt 0.167878 1.000000
vt 0.000000 1.000000
vt 0.167878 0.000000
vt 0.334545 1.000000
vt 0.334545 0.000000
vt 0.501212 1.000000
vt 0.667878 0.000000
vt 0.501212 0.000000
vt 0.667879 1.000000
vt 1.000000 1.000000
s 1
f 2/1/1 10/2/2 9/3/3
f 1/4/3 14/5/2 3/6/4
f 5/7/3 13/8/4 14/5/2
f 6/9/3 12/10/2 13/8/4
f 8/11/1 12/10/2 7/12/1
f 9/3/3 11/13/4 8/11/1
f 2/1/1 4/14/4 10/2/2
f 1/4/3 5/7/3 14/5/2
f 5/7/3 6/9/3 13/8/4
f 6/9/3 7/12/1 12/10/2
f 8/11/1 11/13/4 12/10/2
f 9/3/3 10/2/2 11/13/4
