# Blender 4.0.2
# www.blender.org
o butterfly-wings
v -0.149874 0.000000 -0.139646
v -0.676055 0.000000 -0.658796
v -1.015452 0.000000 -1.066932
v -1.313699 0.000000 -1.529732
v -1.423470 0.000000 -1.769153
v -1.494249 0.000000 -2.007266
v -1.516467 0.000000 -2.239081
v -1.503285 0.000000 -2.293754
v -1.469093 0.000000 -2.329184
v -1.417411 0.000000 -2.347340
v -1.351758 0.000000 -2.350194
v -1.275655 0.000000 -2.339717
v -1.192621 0.000000 -2.317880
v -1.106178 0.000000 -2.286653
v -0.937141 0.000000 -2.203913
v -0.861587 0.000000 -2.156342
v -0.673357 0.000000 -1.988787
v -0.598602 0.000000 -1.937507
v 0.060667 0.000000 -1.759956
v 0.085107 0.000000 -1.724835
v 0.116640 0.000000 -1.490235
v 0.113829 0.000000 -1.444594
v 0.125028 0.000000 -1.325553
v 0.140555 0.000000 -1.336127
v 0.158927 0.000000 -1.358165
v 0.298333 0.000000 -1.561662
v 0.336698 0.000000 -1.605292
v 0.378881 0.000000 -1.644654
v 0.425023 0.000000 -1.677503
v 0.475262 0.000000 -1.701589
v 0.529738 0.000000 -1.714667
v 0.608351 0.000000 -1.720640
v 0.681173 0.000000 -1.719544
v 0.748491 0.000000 -1.712354
v 0.810588 0.000000 -1.700045
v 0.920264 0.000000 -1.663964
v 1.012480 0.000000 -1.619098
v 1.191153 0.000000 -1.509190
v 1.228647 0.000000 -1.477223
v 1.301685 0.000000 -1.397169
v 1.368912 0.000000 -1.303591
v 1.426471 0.000000 -1.206056
v 1.497160 0.000000 -1.037372
v 1.506032 0.000000 -0.994781
v 1.513158 0.000000 -0.812616
v 1.508955 0.000000 -0.767529
v 1.485523 0.000000 -0.644251
v 1.474842 0.000000 -0.609423
v 1.366427 0.000000 -0.477837
v 1.105423 0.000000 -0.324025
v 0.622364 0.000000 -0.099130
v 0.560620 0.000000 -0.077769
v 0.521409 0.000000 -0.069180
v 0.037479 0.000000 -0.079202
v -0.075671 0.000000 -0.093410
v -0.138658 0.000000 -0.130937
v -0.676055 0.000000 0.631315
v -1.015452 0.000000 1.038852
v -1.313699 0.000000 1.500972
v -1.423470 0.000000 1.740041
v -1.494249 0.000000 1.977805
v -1.516467 0.000000 2.209280
v -1.503285 0.000000 2.263873
v -1.469093 0.000000 2.299250
v -1.417411 0.000000 2.317380
v -1.351758 0.000000 2.320230
v -1.275655 0.000000 2.309768
v -1.192621 0.000000 2.287962
v -1.106178 0.000000 2.256781
v -0.937141 0.000000 2.174163
v -0.746011 0.000000 2.029116
v -0.673357 0.000000 1.959353
v -0.370995 0.000000 1.834701
v -0.157833 0.000000 1.816034
v -0.036107 0.000000 1.792451
v 0.015863 0.000000 1.767965
v 0.060667 0.000000 1.730859
v 0.118129 0.000000 1.510020
v 0.125028 0.000000 1.297093
v 0.140555 0.000000 1.307652
v 0.158927 0.000000 1.329657
v 0.298333 0.000000 1.532856
v 0.336698 0.000000 1.576421
v 0.378881 0.000000 1.615726
v 0.425023 0.000000 1.648526
v 0.475262 0.000000 1.672578
v 0.529738 0.000000 1.685636
v 0.608351 0.000000 1.691600
v 0.681173 0.000000 1.690506
v 0.748491 0.000000 1.683326
v 0.810588 0.000000 1.671035
v 0.920264 0.000000 1.635007
v 1.012480 0.000000 1.590207
v 1.191153 0.000000 1.480461
v 1.228647 0.000000 1.448540
v 1.265651 0.000000 1.410857
v 1.336266 0.000000 1.322975
v 1.399141 0.000000 1.226365
v 1.486247 0.000000 1.045166
v 1.497160 0.000000 1.009335
v 1.515188 0.000000 0.830792
v 1.513158 0.000000 0.784910
v 1.494917 0.000000 0.655150
v 1.485523 0.000000 0.616792
v 1.420573 0.000000 0.492378
v 1.366427 0.000000 0.450622
v 1.204177 0.000000 0.350854
v 0.560620 0.000000 0.051142
v 0.521409 0.000000 0.042565
v -0.000591 0.000000 0.054063
v -0.087018 0.000000 0.072524
v -0.145319 0.000000 0.109151
vn -0.0000 1.0000 -0.0000
vt 0.357414 0.000000
vt 0.182510 0.000000
vt 0.038023 0.000000
vt 0.794677 0.000000
vt 0.520913 0.000000
vt 0.684411 0.000000
vt 0.019011 0.000000
vt 0.000000 0.000000
vt 0.494297 0.000000
vt 0.471483 0.000000
vt 0.444867 0.000000
vt 0.410646 0.000000
vt 0.406844 0.000000
vt 0.403042 0.000000
vt 0.384030 0.000000
vt 0.372624 0.000000
vt 0.353612 0.000000
vt 0.342205 0.000000
vt 0.338403 0.000000
vt 0.323194 0.000000
vt 0.319392 0.000000
vt 0.304182 0.000000
vt 0.296578 0.000000
vt 0.288973 0.000000
vt 0.281369 0.000000
vt 0.277567 0.000000
vt 0.258555 0.000000
vt 0.250951 0.000000
vt 0.243346 0.000000
vt 0.239544 0.000000
vt 0.235741 0.000000
vt 0.231939 0.000000
vt 0.228137 0.000000
vt 0.224335 0.000000
vt 0.220532 0.000000
vt 0.216730 0.000000
vt 0.212928 0.000000
vt 0.209125 0.000000
vt 0.190114 0.000000
vt 0.026616 0.000000
vt 0.034221 0.000000
vt 0.045627 0.000000
vt 0.041825 0.000000
vt 0.053232 0.000000
vt 0.049430 0.000000
vt 0.060837 0.000000
vt 0.057034 0.000000
vt 0.068441 0.000000
vt 0.064639 0.000000
vt 0.079848 0.000000
vt 0.072243 0.000000
vt 0.095057 0.000000
vt 0.083650 0.000000
vt 0.140684 0.000000
vt 0.136882 0.000000
vt 0.098859 0.000000
vt 0.159696 0.000000
vt 0.186312 0.000000
vt 0.163498 0.000000
vt 0.737643 0.000000
vt 0.741445 0.000000
vt 0.745247 0.000000
vt 0.752852 0.000000
vt 0.760456 0.000000
vt 0.779468 0.000000
vt 0.783270 0.000000
vt 0.787072 0.000000
vt 0.802281 0.000000
vt 0.817491 0.000000
vt 0.821293 0.000000
vt 0.836502 0.000000
vt 0.840304 0.000000
vt 0.851711 0.000000
vt 0.855513 0.000000
vt 0.870722 0.000000
vt 0.874525 0.000000
vt 0.882129 0.000000
vt 0.908745 0.000000
vt 0.912548 0.000000
vt 0.950570 0.000000
vt 0.977186 0.000000
vt 1.000000 0.000000
vt 0.528517 0.000000
vt 0.536122 0.000000
vt 0.539924 0.000000
vt 0.543726 0.000000
vt 0.547529 0.000000
vt 0.551331 0.000000
vt 0.555133 0.000000
vt 0.558935 0.000000
vt 0.562738 0.000000
vt 0.566540 0.000000
vt 0.570342 0.000000
vt 0.574144 0.000000
vt 0.581749 0.000000
vt 0.593156 0.000000
vt 0.596958 0.000000
vt 0.730038 0.000000
vt 0.733840 0.000000
vt 0.722433 0.000000
vt 0.726236 0.000000
vt 0.714829 0.000000
vt 0.718631 0.000000
vt 0.692015 0.000000
vt 0.711027 0.000000
vt 0.612167 0.000000
vt 0.623574 0.000000
vt 0.631179 0.000000
vt 0.634981 0.000000
vt 0.638783 0.000000
vt 0.657795 0.000000
vt 0.688213 0.000000
s 0
f 48/1/1 23/2/1 5/3/1
f 97/4/1 57/5/1 79/6/1
f 2/7/1 1/8/1 56/9/1
f 56/9/1 55/10/1 54/11/1
f 54/11/1 53/12/1 52/13/1
f 52/13/1 51/14/1 50/15/1
f 50/15/1 49/16/1 48/1/1
f 48/1/1 47/17/1 46/18/1
f 46/18/1 45/19/1 44/20/1
f 44/20/1 43/21/1 42/22/1
f 42/22/1 41/23/1 40/24/1
f 40/24/1 39/25/1 38/26/1
f 38/26/1 37/27/1 36/28/1
f 36/28/1 35/29/1 34/30/1
f 34/30/1 33/31/1 32/32/1
f 32/32/1 31/33/1 30/34/1
f 30/34/1 29/35/1 28/36/1
f 28/36/1 27/37/1 26/38/1
f 28/36/1 26/38/1 25/39/1
f 32/32/1 30/34/1 28/36/1
f 36/28/1 34/30/1 32/32/1
f 40/24/1 38/26/1 36/28/1
f 44/20/1 42/22/1 40/24/1
f 48/1/1 46/18/1 44/20/1
f 52/13/1 50/15/1 48/1/1
f 56/9/1 54/11/1 52/13/1
f 3/40/1 2/7/1 56/9/1
f 5/3/1 4/41/1 3/40/1
f 7/42/1 6/43/1 5/3/1
f 9/44/1 8/45/1 7/42/1
f 11/46/1 10/47/1 9/44/1
f 13/48/1 12/49/1 11/46/1
f 15/50/1 14/51/1 13/48/1
f 17/52/1 16/53/1 15/50/1
f 20/54/1 19/55/1 18/56/1
f 17/52/1 15/50/1 13/48/1
f 21/57/1 20/54/1 18/56/1
f 18/56/1 17/52/1 13/48/1
f 13/48/1 11/46/1 9/44/1
f 9/44/1 7/42/1 5/3/1
f 5/3/1 3/40/1 56/9/1
f 56/9/1 52/13/1 48/1/1
f 48/1/1 44/20/1 40/24/1
f 40/24/1 36/28/1 32/32/1
f 32/32/1 28/36/1 25/39/1
f 32/32/1 25/39/1 24/58/1
f 48/1/1 40/24/1 32/32/1
f 5/3/1 56/9/1 48/1/1
f 13/48/1 9/44/1 5/3/1
f 22/59/1 21/57/1 18/56/1
f 18/56/1 13/48/1 5/3/1
f 48/1/1 32/32/1 24/58/1
f 23/2/1 22/59/1 18/56/1
f 48/1/1 24/58/1 23/2/1
f 23/2/1 18/56/1 5/3/1
f 89/60/1 90/61/1 91/62/1
f 91/62/1 92/63/1 93/64/1
f 93/64/1 94/65/1 95/66/1
f 95/66/1 96/67/1 97/4/1
f 97/4/1 98/68/1 99/69/1
f 99/69/1 100/70/1 101/71/1
f 101/71/1 102/72/1 103/73/1
f 103/73/1 104/74/1 105/75/1
f 105/75/1 106/76/1 107/77/1
f 107/77/1 108/78/1 109/79/1
f 109/79/1 110/80/1 111/81/1
f 111/81/1 112/82/1 57/5/1
f 57/5/1 58/83/1 59/84/1
f 59/84/1 60/85/1 61/86/1
f 61/86/1 62/87/1 63/88/1
f 63/88/1 64/89/1 65/90/1
f 65/90/1 66/91/1 67/92/1
f 67/92/1 68/93/1 69/94/1
f 69/94/1 70/95/1 71/96/1
f 69/94/1 71/96/1 72/97/1
f 65/90/1 67/92/1 69/94/1
f 61/86/1 63/88/1 65/90/1
f 57/5/1 59/84/1 61/86/1
f 109/79/1 111/81/1 57/5/1
f 105/75/1 107/77/1 109/79/1
f 101/71/1 103/73/1 105/75/1
f 97/4/1 99/69/1 101/71/1
f 93/64/1 95/66/1 97/4/1
f 89/60/1 91/62/1 93/64/1
f 87/98/1 88/99/1 89/60/1
f 85/100/1 86/101/1 87/98/1
f 83/102/1 84/103/1 85/100/1
f 81/104/1 82/105/1 83/102/1
f 81/104/1 83/102/1 85/100/1
f 85/100/1 87/98/1 89/60/1
f 89/60/1 93/64/1 97/4/1
f 97/4/1 101/71/1 105/75/1
f 105/75/1 109/79/1 57/5/1
f 57/5/1 61/86/1 65/90/1
f 65/90/1 69/94/1 72/97/1
f 73/106/1 74/107/1 75/108/1
f 57/5/1 65/90/1 72/97/1
f 73/106/1 75/108/1 76/109/1
f 57/5/1 72/97/1 73/106/1
f 97/4/1 105/75/1 57/5/1
f 85/100/1 89/60/1 97/4/1
f 81/104/1 85/100/1 97/4/1
f 57/5/1 73/106/1 76/109/1
f 76/109/1 77/110/1 78/111/1
f 76/109/1 78/111/1 79/6/1
f 80/112/1 81/104/1 97/4/1
f 57/5/1 76/109/1 79/6/1
f 79/6/1 80/112/1 97/4/1
